# xmcd
#
# Track frame offsets:
#	150
#	15140
#	32222
#	50385
#	64525
#	79897
#	98030
#	114617
#	131805
#	143372
#	161347
#	181037
#	202950
#	215222
#
# Disc length: 3103 seconds
#
# Revision: 4
# Processed by: cddbd v1.5.2PL0 Copyright (c) Steve Scherf et al.
# Submitted via: dBpowerAMP V4.0
#
DISCID=b20c1d0e
DTITLE=Chitãozinho and Xororó - Série Bis  CD2
DYEAR=2000
DGENRE=Sertanejo
TTITLE0=Tenho Ciúme De Tudo
TTITLE1=Obras De Poeta  (Os Passarinhos)
TTITLE2=Não Desligue O Rádio
TTITLE3=Matriz Ou Filial
TTITLE4=Galopeira  (Galopera)
TTITLE5=Majestade, O Sabiá
TTITLE6=Terra Tombada
TTITLE7=Meu Disfarce
TTITLE8=Cama De Casal
TTITLE9=Contratempos
TTITLE10=A Colheita
TTITLE11=De Coração Para Coração
TTITLE12=O Dinheiro Compra Tudo
TTITLE13=Adeus Solidão  (Picking Up Pebbles)
EXTD=Album\nEMI 526663 2\nCD1\nEMI 526664 2\nCD2\nEMI 526665 2
EXTT0=
EXTT1=
EXTT2=
EXTT3=
EXTT4=
EXTT5=
EXTT6=
EXTT7=
EXTT8=
EXTT9=
EXTT10=
EXTT11=
EXTT12=
EXTT13=
PLAYORDER=
